<svg width="42" height="43" viewBox="0 0 42 43" fill="none" xmlns="http://www.w3.org/2000/svg">
<circle cx="21" cy="21.5742" r="21" fill="white"/>
<path fill-rule="evenodd" clip-rule="evenodd" d="M15.7095 8.81772C17.078 8.75472 17.5143 8.74072 21.0003 8.74072C24.4863 8.74072 24.9227 8.75589 26.29 8.81772C27.6573 8.87956 28.5907 9.09772 29.4073 9.41389C30.2625 9.73706 31.0383 10.2422 31.68 10.8956C32.3333 11.5361 32.8373 12.3107 33.1593 13.1671C33.4767 13.9837 33.6937 14.9171 33.7567 16.2821C33.8197 17.6529 33.8337 18.0892 33.8337 21.5741C33.8337 25.0601 33.8185 25.4964 33.7567 26.8649C33.6948 28.2299 33.4767 29.1632 33.1593 29.9799C32.8373 30.8363 32.3325 31.6123 31.68 32.2537C31.0383 32.9071 30.2625 33.4111 29.4073 33.7331C28.5907 34.0504 27.6573 34.2674 26.2923 34.3304C24.9227 34.3934 24.4863 34.4074 21.0003 34.4074C17.5143 34.4074 17.078 34.3922 15.7095 34.3304C14.3445 34.2686 13.4112 34.0504 12.5945 33.7331C11.7381 33.411 10.9621 32.9062 10.3207 32.2537C9.66777 31.6128 9.16253 30.8373 8.84016 29.9811C8.52399 29.1644 8.30699 28.2311 8.24399 26.8661C8.18099 25.4952 8.16699 25.0589 8.16699 21.5741C8.16699 18.0881 8.18216 17.6517 8.24399 16.2844C8.30583 14.9171 8.52399 13.9837 8.84016 13.1671C9.163 12.3108 9.66863 11.5353 10.3218 10.8944C10.9624 10.2416 11.7375 9.73641 12.5933 9.41389C13.41 9.09772 14.3433 8.88072 15.7083 8.81772H15.7095ZM26.1862 11.1277C24.8328 11.0659 24.4268 11.0531 21.0003 11.0531C17.5738 11.0531 17.1678 11.0659 15.8145 11.1277C14.5627 11.1849 13.8837 11.3937 13.431 11.5699C12.8325 11.8032 12.4043 12.0797 11.9552 12.5289C11.5294 12.9431 11.2017 13.4474 10.9962 14.0047C10.82 14.4574 10.6112 15.1364 10.554 16.3882C10.4922 17.7416 10.4793 18.1476 10.4793 21.5741C10.4793 25.0006 10.4922 25.4066 10.554 26.7599C10.6112 28.0117 10.82 28.6907 10.9962 29.1434C11.2015 29.6999 11.5293 30.2051 11.9552 30.6192C12.3693 31.0451 12.8745 31.3729 13.431 31.5782C13.8837 31.7544 14.5627 31.9632 15.8145 32.0204C17.1678 32.0822 17.5727 32.0951 21.0003 32.0951C24.428 32.0951 24.8328 32.0822 26.1862 32.0204C27.438 31.9632 28.117 31.7544 28.5697 31.5782C29.1682 31.3449 29.5963 31.0684 30.0455 30.6192C30.4713 30.2051 30.7992 29.6999 31.0045 29.1434C31.1807 28.6907 31.3895 28.0117 31.4467 26.7599C31.5085 25.4066 31.5213 25.0006 31.5213 21.5741C31.5213 18.1476 31.5085 17.7416 31.4467 16.3882C31.3895 15.1364 31.1807 14.4574 31.0045 14.0047C30.7712 13.4062 30.4947 12.9781 30.0455 12.5289C29.6312 12.1031 29.127 11.7755 28.5697 11.5699C28.117 11.3937 27.438 11.1849 26.1862 11.1277ZM19.3612 25.5302C20.2766 25.9113 21.2959 25.9627 22.2451 25.6757C23.1942 25.3887 24.0143 24.7811 24.5652 23.9567C25.1161 23.1322 25.3637 22.1421 25.2657 21.1553C25.1677 20.1686 24.7302 19.2465 24.0278 18.5466C23.5801 18.0991 23.0387 17.7565 22.4427 17.5434C21.8467 17.3303 21.2108 17.252 20.5809 17.3141C19.951 17.3762 19.3427 17.5773 18.7998 17.9027C18.2569 18.2282 17.7929 18.6699 17.4412 19.1962C17.0895 19.7225 16.8589 20.3202 16.7659 20.9463C16.673 21.5725 16.72 22.2114 16.9036 22.8172C17.0872 23.4229 17.4029 23.9804 17.8278 24.4496C18.2528 24.9187 18.7765 25.2878 19.3612 25.5302ZM16.336 16.9097C16.9485 16.2972 17.6757 15.8113 18.476 15.4798C19.2763 15.1483 20.1341 14.9777 21.0003 14.9777C21.8666 14.9777 22.7243 15.1483 23.5246 15.4798C24.3249 15.8113 25.0521 16.2972 25.6647 16.9097C26.2772 17.5223 26.7631 18.2494 27.0946 19.0497C27.4261 19.85 27.5967 20.7078 27.5967 21.5741C27.5967 22.4403 27.4261 23.2981 27.0946 24.0984C26.7631 24.8987 26.2772 25.6259 25.6647 26.2384C24.4276 27.4754 22.7498 28.1704 21.0003 28.1704C19.2509 28.1704 17.573 27.4754 16.336 26.2384C15.0989 25.0013 14.404 23.3235 14.404 21.5741C14.404 19.8246 15.0989 18.1468 16.336 16.9097ZM29.0597 15.9601C29.2114 15.8169 29.333 15.6447 29.417 15.4537C29.5011 15.2627 29.5459 15.0568 29.549 14.8481C29.552 14.6395 29.5132 14.4324 29.4347 14.239C29.3563 14.0456 29.2398 13.87 29.0923 13.7224C28.9447 13.5749 28.7691 13.4584 28.5757 13.38C28.3824 13.3015 28.1752 13.2627 27.9666 13.2657C27.7579 13.2688 27.552 13.3137 27.361 13.3977C27.17 13.4818 26.9978 13.6033 26.8547 13.7551C26.5762 14.0503 26.4237 14.4424 26.4296 14.8481C26.4356 15.2539 26.5994 15.6414 26.8863 15.9284C27.1733 16.2153 27.5608 16.3792 27.9666 16.3851C28.3723 16.391 28.7645 16.2385 29.0597 15.9601Z" fill="#443A22"/>
</svg>
