<svg width="87" height="88" viewBox="0 0 87 88" fill="none" xmlns="http://www.w3.org/2000/svg">
<path d="M2.1748 64.9565V87.7374H12.7479V83.0185H6.14557V64.9565H2.1748ZM14.2356 64.9565V87.7374H18.2769V64.9565H14.2356ZM24.0407 69.6754H31.3948V64.9565H24.0407V69.6754ZM24.0407 78.5925H31.1599V74.1665H24.0407V78.5925ZM21.4092 64.9565V87.7374H25.2155V64.9565H21.4092ZM31.6876 69.8706H36.1988V87.7374H40.1695V69.8706H44.7042V64.9565H31.6876V69.8706ZM55.0316 72.9623C55.0316 73.7218 54.9063 74.3943 54.6557 74.9801C54.4207 75.5659 54.0918 76.0215 53.6689 76.3469C53.2616 76.6724 52.7995 76.8351 52.2826 76.8351C51.7501 76.8351 51.2723 76.6724 50.8494 76.3469C50.4421 76.0215 50.1131 75.5659 49.8626 74.9801C49.6276 74.3943 49.5101 73.7218 49.5101 72.9623C49.5101 72.1813 49.6276 71.5088 49.8626 70.9446C50.1131 70.3588 50.4421 69.9141 50.8494 69.6103C51.2723 69.2849 51.7501 69.1221 52.2826 69.1221C52.7995 69.1221 53.2616 69.2849 53.6689 69.6103C54.0918 69.9141 54.4207 70.3588 54.6557 70.9446C54.9063 71.5088 55.0316 72.1813 55.0316 72.9623ZM52.3061 87.6397L57.0522 79.2759C57.5848 78.3647 58.0312 77.3883 58.3915 76.3469C58.7674 75.3055 58.9554 74.1774 58.9554 72.9623C58.9554 71.0748 58.6499 69.5018 58.039 68.2434C57.4438 66.9851 56.6372 66.0414 55.619 65.4121C54.6166 64.7612 53.5044 64.4358 52.2826 64.4358C51.0452 64.4358 49.9174 64.7612 48.8992 65.4121C47.8968 66.0414 47.0901 66.9851 46.4792 68.2434C45.8839 69.5018 45.5863 71.0748 45.5863 72.9623C45.5863 74.1123 45.7352 75.1428 46.0328 76.054C46.3303 76.9653 46.722 77.7463 47.2075 78.3972C47.6931 79.0265 48.2335 79.5146 48.8287 79.8617C49.4396 80.1871 50.0505 80.3499 50.6614 80.3499C51.2567 80.3499 51.7501 80.2631 52.1416 80.0895C52.5489 79.8942 52.9719 79.5037 53.4104 78.9179L52.6115 79.4061L47.278 87.6397H52.3061ZM65.8148 72.9623C65.8148 73.7218 65.6896 74.3943 65.4389 74.9801C65.2039 75.5659 64.875 76.0215 64.4521 76.3469C64.0449 76.6724 63.5827 76.8351 63.0658 76.8351C62.5333 76.8351 62.0555 76.6724 61.6326 76.3469C61.2254 76.0215 60.8965 75.5659 60.6458 74.9801C60.4108 74.3943 60.2933 73.7218 60.2933 72.9623C60.2933 72.1813 60.4108 71.5088 60.6458 70.9446C60.8965 70.3588 61.2254 69.9141 61.6326 69.6103C62.0555 69.2849 62.5333 69.1221 63.0658 69.1221C63.5827 69.1221 64.0449 69.2849 64.4521 69.6103C64.875 69.9141 65.2039 70.3588 65.4389 70.9446C65.6896 71.5088 65.8148 72.1813 65.8148 72.9623ZM63.0893 87.6397L67.8354 79.2759C68.3681 78.3647 68.8145 77.3883 69.1747 76.3469C69.5506 75.3055 69.7386 74.1774 69.7386 72.9623C69.7386 71.0748 69.4332 69.5018 68.8223 68.2434C68.2271 66.9851 67.4204 66.0414 66.4022 65.4121C65.3998 64.7612 64.2876 64.4358 63.0658 64.4358C61.8284 64.4358 60.7006 64.7612 59.6825 65.4121C58.68 66.0414 57.8733 66.9851 57.2624 68.2434C56.6673 69.5018 56.3696 71.0748 56.3696 72.9623C56.3696 74.1123 56.5184 75.1428 56.816 76.054C57.1137 76.9653 57.5052 77.7463 57.9908 78.3972C58.4764 79.0265 59.0168 79.5146 59.612 79.8617C60.2229 80.1871 60.8337 80.3499 61.4446 80.3499C62.0399 80.3499 62.5333 80.2631 62.9249 80.0895C63.3322 79.8942 63.7551 79.5037 64.1936 78.9179L63.3948 79.4061L58.0613 87.6397H63.0893Z" fill="white"/>
<path d="M33.0584 23.804C33.0584 25.9062 32.6199 27.7681 31.7426 29.3898C30.9203 31.0115 29.769 32.2728 28.2888 33.1737C26.8634 34.0746 25.2461 34.5251 23.4369 34.5251C21.5729 34.5251 19.9008 34.0746 18.4206 33.1737C16.9952 32.2728 15.844 31.0115 14.9667 29.3898C14.1444 27.7681 13.7332 25.9062 13.7332 23.804C13.7332 21.6418 14.1444 19.7798 14.9667 18.2183C15.844 16.5966 16.9952 15.3653 18.4206 14.5245C19.9008 13.6235 21.5729 13.1731 23.4369 13.1731C25.2461 13.1731 26.8634 13.6235 28.2888 14.5245C29.769 15.3653 30.9203 16.5966 31.7426 18.2183C32.6199 19.7798 33.0584 21.6418 33.0584 23.804ZM23.5192 64.4359L40.1306 41.282C41.9946 38.7594 43.5571 36.0567 44.818 33.1737C46.1337 30.2907 46.7916 27.1675 46.7916 23.804C46.7916 18.5786 45.7226 14.2242 43.5845 10.7406C41.5012 7.25694 38.6777 4.64424 35.1143 2.90249C31.6056 1.10064 27.7131 0.199707 23.4369 0.199707C19.1059 0.199707 15.1586 1.10064 11.5951 2.90249C8.08639 4.64424 5.26303 7.25694 3.12492 10.7406C1.04165 14.2242 0 18.5786 0 23.804C0 26.9873 0.520817 29.8402 1.56246 32.3628C2.60411 34.8854 3.97468 37.0477 5.6742 38.8495C7.37373 40.5913 9.26516 41.9427 11.3484 42.9037C13.4865 43.8046 15.6246 44.2551 17.7627 44.2551C19.846 44.2551 21.5729 44.0148 22.9435 43.5344C24.3689 42.9938 25.8491 41.9127 27.3842 40.291L24.5882 41.6424L5.92091 64.4359H23.5192ZM73.2668 23.804C73.2668 25.9062 72.8281 27.7681 71.951 29.3898C71.1287 31.0115 69.9774 32.2728 68.4972 33.1737C67.0717 34.0746 65.4545 34.5251 63.6453 34.5251C61.7813 34.5251 60.1092 34.0746 58.629 33.1737C57.2035 32.2728 56.0522 31.0115 55.1751 29.3898C54.3528 27.7681 53.9416 25.9062 53.9416 23.804C53.9416 21.6418 54.3528 19.7798 55.1751 18.2183C56.0522 16.5966 57.2035 15.3653 58.629 14.5245C60.1092 13.6235 61.7813 13.1731 63.6453 13.1731C65.4545 13.1731 67.0717 13.6235 68.4972 14.5245C69.9774 15.3653 71.1287 16.5966 71.951 18.2183C72.8281 19.7798 73.2668 21.6418 73.2668 23.804ZM63.7275 64.4359L80.339 41.282C82.2029 38.7594 83.7654 36.0567 85.0264 33.1737C86.3421 30.2907 87 27.1675 87 23.804C87 18.5786 85.9309 14.2242 83.7928 10.7406C81.7095 7.25694 78.8861 4.64424 75.3227 2.90249C71.8139 1.10064 67.9215 0.199707 63.6453 0.199707C59.3142 0.199707 55.367 1.10064 51.8035 2.90249C48.2948 4.64424 45.4714 7.25694 43.3333 10.7406C41.2499 14.2242 40.2084 18.5786 40.2084 23.804C40.2084 26.9873 40.7292 29.8402 41.7708 32.3628C42.8124 34.8854 44.183 37.0477 45.8826 38.8495C47.582 40.5913 49.4734 41.9427 51.5568 42.9037C53.6949 43.8046 55.833 44.2551 57.9711 44.2551C60.0543 44.2551 61.7813 44.0148 63.1519 43.5344C64.5773 42.9938 66.0575 41.9127 67.5926 40.291L64.7966 41.6424L46.1293 64.4359H63.7275Z" fill="white"/>
</svg>
